<?xml version="1.0" encoding="iso-8859-1"?>
<!-- Generator: Adobe Illustrator 19.0.0, SVG Export Plug-In . SVG Version: 6.00 Build 0)  -->
<svg version="1.1" id="Capa_1" xmlns="http://www.w3.org/2000/svg" xmlns:xlink="http://www.w3.org/1999/xlink" x="0px" y="0px"
	 viewBox="0 0 512 512" style="enable-background:new 0 0 512 512;" xml:space="preserve">
<path style="fill:#6C4127;" d="M448.238,448.252c-7.053,7.053-11.061,15.916-12.332,25.097L329.975,367.417l37.429-37.429
	l105.931,105.931C464.163,437.199,455.292,441.198,448.238,448.252z"/>
<circle style="fill:#EBBA16;" cx="467.862" cy="467.875" r="44.111"/>
<rect x="372.78" y="381.636" transform="matrix(0.7071 -0.7071 0.7071 0.7071 -165.3974 399.2591)" style="fill:#8E5F46;" width="52.939" height="35.292"/>
<path style="fill:#FFFFFF;" d="M461.647,482.97c2.26,0,4.52-0.865,6.241-2.586l12.473-12.482c3.443-3.452,3.443-9.031,0-12.482
	c-3.452-3.46-9.039-3.443-12.482,0l-12.473,12.482c-3.443,3.452-3.443,9.031,0,12.482
	C457.128,482.105,459.388,482.97,461.647,482.97z"/>
<g>
	<polygon style="fill:#AFB6BB;" points="273.655,211.284 74.858,12.487 0,0.013 12.482,74.871 211.271,273.668 	"/>
	
		<rect x="260.289" y="260.939" transform="matrix(-0.7071 0.7071 -0.7071 -0.7071 734.9041 304.4402)" style="fill:#AFB6BB;" width="88.222" height="86.969"/>
</g>
<path style="fill:#839594;" d="M224.812,233.653c-2.26,0-4.52-0.865-6.241-2.586L99.69,112.185c-3.452-3.452-3.452-9.031,0-12.482
	c3.443-3.452,9.031-3.452,12.482,0l118.881,118.881c3.452,3.452,3.452,9.031,0,12.482
	C229.332,232.788,227.063,233.653,224.812,233.653z"/>
<path style="fill:#6C4127;" d="M63.762,448.252c7.053,7.053,11.061,15.916,12.332,25.097l105.931-105.931l-37.429-37.429
	L38.665,435.919C47.837,437.199,56.708,441.198,63.762,448.252z"/>
<circle style="fill:#EBBA16;" cx="44.111" cy="467.875" r="44.111"/>
<polygon style="fill:#E7ECED;" points="203.335,371.072 140.941,308.679 437.142,12.487 512,0.013 499.527,74.871 "/>
<g>
	<path style="fill:#AFB6BB;" d="M187.595,333.246c-2.26,0-4.52-0.865-6.241-2.586c-3.452-3.452-3.452-9.031,0-12.482L399.828,99.703
		c3.443-3.452,9.031-3.452,12.482,0c3.452,3.452,3.452,9.031,0,12.482L193.836,330.659
		C192.115,332.381,189.855,333.246,187.595,333.246z"/>
	<path style="fill:#AFB6BB;" d="M432.552,88.289c-2.26,0-4.52-0.865-6.241-2.586c-3.452-3.452-3.452-9.031,0-12.482l26.483-26.483
		c3.443-3.452,9.039-3.452,12.482,0c3.452,3.452,3.452,9.031,0,12.482l-26.483,26.483C437.071,87.424,434.812,88.289,432.552,88.289
		z"/>
</g>
<rect x="86.271" y="381.631" transform="matrix(-0.7071 -0.7071 0.7071 -0.7071 -89.873 761.3284)" style="fill:#8E5F46;" width="52.939" height="35.292"/>
<path style="fill:#FFFFFF;" d="M50.353,482.97c-2.26,0-4.52-0.865-6.241-2.586l-12.473-12.482c-3.443-3.452-3.443-9.031,0-12.482
	c3.452-3.46,9.039-3.443,12.482,0l12.473,12.482c3.443,3.452,3.443,9.031,0,12.482C54.872,482.105,52.612,482.97,50.353,482.97z"/>
<polygon style="fill:#EBBA16;" points="318.164,405.517 405.504,318.177 405.504,280.748 368.075,280.748 280.735,368.088 
	280.735,405.517 "/>
<path style="fill:#839594;" d="M79.448,88.289c-2.26,0-4.52-0.865-6.241-2.586L46.724,59.22c-3.452-3.452-3.452-9.031,0-12.482
	c3.443-3.452,9.039-3.452,12.482,0L85.689,73.22c3.452,3.452,3.452,9.031,0,12.482C83.968,87.424,81.708,88.289,79.448,88.289z"/>
<polygon style="fill:#EBBA16;" points="193.836,405.517 106.496,318.177 106.496,280.748 143.925,280.748 231.265,368.088 
	231.265,405.517 "/>
<g>
</g>
<g>
</g>
<g>
</g>
<g>
</g>
<g>
</g>
<g>
</g>
<g>
</g>
<g>
</g>
<g>
</g>
<g>
</g>
<g>
</g>
<g>
</g>
<g>
</g>
<g>
</g>
<g>
</g>
</svg>
